# xmcd
#
# Track frame offsets: 
#        150
#        12200
#        28530
#        43817
#        60020
#        75742
#        94805
#        107587
#        124277
#        141972
#
# Disc length: 2368 seconds
#
# Revision: 4
# Processed by: cddbd v1.4PL0 Copyright (c) Steve Scherf et al.
# Submitted via: ExactAudioCopy v0.90b4
#
DISCID=79093e0a
DTITLE=Paul Brandt - Outside The Frame
DYEAR=1997
DGENRE=Country
TTITLE0=Chain Reaction
TTITLE1=A Little In Love
TTITLE2=What's Come Over You
TTITLE3=One
TTITLE4=I Believe In You
TTITLE5=Yeah
TTITLE6=We Are The One
TTITLE7=Start Forever Over Again
TTITLE8=Dry Eye
TTITLE9=Outside The Frame
EXTD=
EXTT0=
EXTT1=
EXTT2=
EXTT3=
EXTT4=
EXTT5=
EXTT6=
EXTT7=
EXTT8=
EXTT9=
PLAYORDER=
